<svg xmlns="http://www.w3.org/2000/svg" width="64" height="64" viewBox="0 0 64 64">
  <!-- Background -->
  <rect width="64" height="64" rx="14" fill="#2F6FED"/>

  <!-- Car body -->
  <path fill="#FFFFFF" d="M16 36h32c2 0 3 1 3 3v5h-4a4 4 0 0 1-8 0H25a4 4 0 0 1-8 0h-4v-5c0-2 1-3 3-3z"/>

  <!-- Car top -->
  <path fill="#FFFFFF" d="M22 36l4-8c.6-1.2 1.6-2 3-2h6c1.4 0 2.4.8 3 2l4 8H22z"/>

  <!-- Wheels -->
  <circle cx="21" cy="44" r="3" fill="#FFFFFF"/>
  <circle cx="43" cy="44" r="3" fill="#FFFFFF"/>
</svg>